HIERARCHY
ROOT ui
{
	 OFFSET 0 0 0
	 CHANNELS 3 XPosition YPosition Z Position
	 EndSite
	 {
	 OFFSET 0 -1 0
	 }
}
ROOT li
{
	 OFFSET 0 0 0
	 CHANNELS 3 XPosition YPosition Z Position
	 EndSite
	 {
	 OFFSET 0 -1 0
	 }
}
ROOT ul
{
	 OFFSET 0 0 0
	 CHANNELS 3 XPosition YPosition Z Position
	 EndSite
	 {
	 OFFSET 0 -1 0
	 }
}
ROOT ll
{
	 OFFSET 0 0 0
	 CHANNELS 3 XPosition YPosition Z Position
	 EndSite
	 {
	 OFFSET 0 -1 0
	 }
}
ROOT tt
{
	 OFFSET 0 0 0
	 CHANNELS 3 XPosition YPosition Z Position
	 EndSite
	 {
	 OFFSET 0 -1 0
	 }
}
ROOT tb
{
	 OFFSET 0 0 0
	 CHANNELS 3 XPosition YPosition Z Position
	 EndSite
	 {
	 OFFSET 0 -1 0
	 }
}
ROOT td
{
	 OFFSET 0 0 0
	 CHANNELS 3 XPosition YPosition Z Position
	 EndSite
	 {
	 OFFSET 0 -1 0
	 }
}
ROOT v
{
	 OFFSET 0 0 0
	 CHANNELS 3 XPosition YPosition Z Position
	 EndSite
	 {
	 OFFSET 0 -1 0
	 }
}
ROOT bn
{
	 OFFSET 0 0 0
	 CHANNELS 3 XPosition YPosition Z Position
	 EndSite
	 {
	 OFFSET 0 -1 0
	 }
}
MOTION
Frames: 24
Frame Time: 0.002
0.0013521740436553955	2.4733400344848633E-4	0		0.5912023315429688	-2.406569091796875	0		-1.1522691650390624	0.04028123092651367	0		-0.602618896484375	-2.73810498046875	0		1.310468505859375	-0.7935911254882813	0		3.23796484375	-0.05231689453125	0		4.684533203125	0.07835095977783203	0		5.70604443359375	0.16446441650390625	0		-0.2317900695800781	5.9202587890625	0		
0.010630587577819824	0.009713948249816895	0		0.5674657592773438	-2.399725830078125	0		-1.1490584716796874	0.043807933807373044	0		-0.5773450317382812	-2.730822998046875	0		1.319605712890625	-0.7971145629882812	0		3.20714453125	-0.05137562561035156	0		4.67692529296875	0.09804143524169921	0		5.70838427734375	0.18102694702148436	0		-0.23266510009765626	5.9198369140625	0		
0.014785849571228027	0.005251063823699951	0		0.595689208984375	-2.400453857421875	0		-1.1498580322265626	0.04338933563232422	0		-0.6011599731445313	-2.73497607421875	0		1.31189404296875	-0.790429443359375	0		3.239388916015625	-0.04812215042114258	0		4.68289892578125	0.07760471343994141	0		5.70490576171875	0.16839202880859375	0		-0.23352482604980468	5.919427734375	0		
0.009073749542236328	0.008918745994567871	0		0.5820094604492188	-2.3966884765625	0		-1.1116185302734376	0.04254617691040039	0		-0.5808599853515625	-2.733609375	0		1.3111470947265624	-0.7908006591796874	0		3.227700439453125	-0.042344341278076174	0		4.68621923828125	0.08423257446289062	0		5.7043671875	0.16784925842285156	0		-0.2494835205078125	5.9082060546875	0		
-0.0017493259906768799	-0.0013346999883651733	0		0.5813366088867188	-2.3970458984375	0		-1.112330322265625	0.0421617317199707	0		-0.6185138549804687	-2.732569091796875	0		1.30740380859375	-0.7951124877929687	0		3.21986669921875	-0.05358015823364258	0		4.69142724609375	0.07687351226806641	0		5.6938125	0.15380419921875	0		-0.25028878784179687	5.90783544921875	0		
-0.020421098709106446	-0.0024749488830566406	0		0.5626526489257813	-2.403175048828125	0		-1.1129927978515626	0.04179887008666992	0		-0.5841613159179687	-2.73631591796875	0		1.3067567138671874	-0.795430908203125	0		3.2131953125	-0.05479604339599609	0		4.67875390625	0.07575202941894531	0		5.69754248046875	0.13597543334960938	0		-0.2349476318359375	5.9173076171875	0		
0.012046500205993653	0.0038380570411682127	0		0.5661487426757813	-2.39852490234375	0		-1.1366683349609374	0.0357181510925293	0		-0.6047353515625	-2.738419677734375	0		1.292142578125	-0.7975632934570313	0		3.250562744140625	-0.05747238159179688	0		4.6781435546875	0.07553155517578125	0		5.6987373046875	0.17883677673339843	0		-0.22056636047363282	5.92681787109375	0		
0.006539988994598389	0.007605910778045654	0		0.5946373291015625	-2.400124755859375	0		-1.0711240234375	0.04366586303710938	0		-0.5791383666992187	-2.731012451171875	0		1.318808349609375	-0.7801260375976562	0		3.212037109375	-0.05526348114013672	0		4.6836796875	0.08327938079833984	0		5.68904296875	0.17188673400878907	0		-0.23636000061035156	5.916693359375	0		
0.011004810333251952	0.0032915449142456054	0		0.5881253662109375	-2.407302490234375	0		-1.1536434326171876	0.04129775619506836	0		-0.5856314697265625	-2.737217529296875	0		1.308203125	-0.7922418823242188	0		3.207492919921875	-0.060402706146240236	0		4.66912158203125	0.07728611755371094	0		5.68869580078125	0.17166563415527344	0		-0.2861744689941406	5.89997705078125	0		
-0.001442986011505127	0.001195809006690979	0		0.6048223876953125	-2.4017080078125	0		-1.0760865478515624	0.03917145919799805	0		-0.5510280151367187	-2.74085107421875	0		1.3077958984375	-0.7924404907226562	0		3.21691162109375	-0.07466664123535156	0		4.66461572265625	0.07021255493164062	0		5.68896484375	0.14034295654296874	0		-0.25366529846191405	5.90637255859375	0		
0.0022285709381103516	0.00394938588142395	0		0.5604876708984375	-2.404406005859375	0		-1.15443310546875	0.04081110382080078	0		-0.588310546875	-2.73965478515625	0		1.3074532470703124	-0.7926109619140626	0		3.221696044921875	-0.061847816467285155	0		4.668330078125	0.07707749938964843	0		5.68100830078125	0.17157679748535157	0		-0.2531792755126953	5.90515380859375	0		
0.002842771053314209	-0.0042364559173583985	0		0.589245849609375	-2.404889892578125	0		-1.1157333984375	0.04017584228515625	0		-0.57562109375	-2.74698779296875	0		1.3071751708984376	-0.79275537109375	0		3.211334716796875	-0.06783561706542969	0		4.68294140625	0.0688466796875	0		5.687931640625	0.17131166076660156	0		-0.2536158142089844	5.90497216796875	0		
0.004731685161590576	0.006589957237243652	0		0.5641253051757813	-2.39975048828125	0		-1.150920654296875	0.04438654327392578	0		-0.5846683349609375	-2.736052978515625	0		1.310004638671875	-0.7889095458984375	0		3.231024658203125	-0.07513346099853516	0		4.68270703125	0.06880372619628906	0		5.69417919921875	0.1693729705810547	0		-0.2539846954345703	5.90481591796875	0		
0.0015285040140151978	0.00349468994140625	0		0.5869185180664063	-2.408120361328125	0		-1.1161380615234375	0.039845916748046876	0		-0.5888218383789062	-2.740150146484375	0		1.3068079833984374	-0.792975830078125	0		3.24584423828125	-0.07635636901855469	0		4.68454638671875	0.06975644683837891	0		5.68695166015625	0.17474705505371094	0		-0.28834957885742185	5.8990576171875	0		
0.0023307750225067137	-0.004625267028808594	0		0.550983154296875	-2.3968212890625	0		-1.116248291015625	0.039713054656982424	0		-0.5908956909179688	-2.742249755859375	0		1.3546903076171875	-0.7955870971679687	0		3.211694580078125	-0.08002252960205078	0		4.67835888671875	0.06281186676025391	0		5.68045751953125	0.1749337921142578	0		-0.2555075225830078	5.90557763671875	0		
-0.0026651198863983155	3.360489904880524E-4	0		0.5868558959960938	-2.408299560546875	0		-1.155298095703125	0.04002683639526367	0		-0.6278795166015625	-2.740947509765625	0		1.282692138671875	-0.7918613891601562	0		3.211644775390625	-0.08005250549316406	0		4.668306640625	0.06292097091674805	0		5.6817158203125	0.14551812744140624	0		-0.2887616882324219	5.8978427734375	0		
0.006316082000732422	-0.0018434280157089233	0		0.57087255859375	-2.411193115234375	0		-1.1552950439453125	0.039924636840820316	0		-0.5758937377929687	-2.747611083984375	0		1.31666455078125	-0.79629150390625	0		3.24373583984375	-0.07242536926269531	0		4.676287109375	0.06083963775634765	0		5.6875439453125	0.17135650634765626	0		-0.23869517517089844	5.91320654296875	0		
0.00941517162322998	0.002052844047546387	0		0.5930791015625	-2.40149560546875	0		-1.1461531982421875	0.04773423385620117	0		-0.6196333618164063	-2.7332099609375	0		1.2929111328125	-0.7800764770507812	0		3.21576123046875	-0.07513111877441406	0		4.67836279296875	0.06282984161376953	0		5.67756201171875	0.1630233459472656	0		-0.23972271728515626	5.91514208984375	0		
-0.02850157356262207	4.0590301156044004E-4	0		0.5533018798828125	-2.394111328125	0		-1.1161405029296876	0.03932310485839844	0		-0.5535975952148438	-2.74400634765625	0		1.306884033203125	-0.7932706298828125	0		3.21673388671875	-0.08715026092529297	0		4.6743994140625	0.05688995361328125	0		5.6776376953125	0.16307853698730468	0		-0.25483984375	5.90423974609375	0		
0.002588819980621338	-0.004992486953735352	0		0.5873326416015625	-2.408532470703125	0		-1.1549918212890624	0.039672412872314454	0		-0.62535791015625	-2.739287353515625	0		1.3070438232421875	-0.7933084716796875	0		3.23188134765625	-0.08732111358642577	0		4.67454541015625	0.056906898498535155	0		5.6748291015625	0.1493709716796875	0		-0.25478898620605467	5.90417626953125	0		
-2.544279992580414E-4	-0.008016764640808105	0		0.5605936889648437	-2.405285888671875	0		-1.1158055419921875	0.03917119598388672	0		-0.5911826782226562	-2.744725341796875	0		1.3072454833984375	-0.7933453979492188	0		3.217072998046875	-0.08716429901123048	0		4.669646484375	0.048977390289306644	0		5.6707490234375	0.16337545776367188	0		-0.25469149780273437	5.904115234375	0		
0.002096811056137085	0.0029037210941314697	0		0.562882080078125	-2.403356689453125	0		-1.154572509765625	0.039523128509521485	0		-0.62081103515625	-2.73546435546875	0		1.2904239501953125	-0.7991973876953125	0		3.2323046875	-0.08733753967285156	0		4.66902978515625	0.06299925231933594	0		5.670916015625	0.1634197998046875	0		-0.2545472717285156	5.90405419921875	0		
0.010358319282531739	0.001759050965309143	0		0.5921865234375	-2.403722412109375	0		-1.0722723388671875	0.041556053161621094	0		-0.55056982421875	-2.742292724609375	0		1.307772216796875	-0.7934227294921875	0		3.2235029296875	-0.09425201416015624	0		4.6701494140625	0.04899610137939453	0		5.678244140625	0.16326577758789063	0		-0.2543559265136719	5.9039931640625	0		
0.003595881938934326	-0.005222907066345215	0		0.588476318359375	-2.408729736328125	0		-1.1539873046875	0.03937617492675781	0		-0.620152099609375	-2.73559716796875	0		1.308095703125	-0.7934647216796875	0		3.252804931640625	-0.09558509063720703	0		4.68046142578125	0.0488881721496582	0		5.67555419921875	0.1495243682861328	0		-0.28818115234375	5.8983017578125	0		
